SplineFontDB: 3.0
FontName: MazonHebrew-Regular
FullName: Mazon Hebrew Regular
FamilyName: Mazon Hebrew
Weight: Regular
Copyright: Copyright (c) 2014 Ryan Dorsey\nLicensed under SIL Open Font License v1.1 (http://scripts.sil.org/OFL)\nCreated with FontForge 2.0 (http://fontforge.sf.net)
UComments: "2014-10-16: Created." 
FontLog: "Mazon Hebrew Regular+AAoACgAA-A low contrast Hebrew font intended as a companion font to ITC Mendoza Roman Std.+AAoACgAA-2014-10-16: Version 0.1.  Initial version." 
Version: 0.1
ItalicAngle: 0
UnderlinePosition: -100
UnderlineWidth: 50
Ascent: 800
Descent: 200
LayerCount: 2
Layer: 0 0 "Back"  1
Layer: 1 0 "Fore"  0
XUID: [1021 933 46516408 8207633]
FSType: 8
OS2Version: 0
OS2_WeightWidthSlopeOnly: 0
OS2_UseTypoMetrics: 1
CreationTime: 1413475767
ModificationTime: 1413764344
PfmFamily: 17
TTFWeight: 500
TTFWidth: 5
LineGap: 90
VLineGap: 0
OS2TypoAscent: 0
OS2TypoAOffset: 1
OS2TypoDescent: 0
OS2TypoDOffset: 1
OS2TypoLinegap: 90
OS2WinAscent: 0
OS2WinAOffset: 1
OS2WinDescent: 0
OS2WinDOffset: 1
HheadAscent: 0
HheadAOffset: 1
HheadDescent: 0
HheadDOffset: 1
OS2Vendor: 'PfEd'
OS2CodePages: 00000020.00200000
OS2UnicodeRanges: 00000800.00000000.00000000.00000000
MarkAttachClasses: 1
DEI: 91125
LangName: 1033 
Encoding: UnicodeBmp
UnicodeInterp: none
NameList: Adobe Glyph List
DisplaySize: -24
AntiAlias: 1
FitToEm: 1
WinInfo: 0 66 21
BeginPrivate: 0
EndPrivate
TeXData: 1 0 0 346030 173015 115343 0 1048576 115343 783286 444596 497025 792723 393216 433062 380633 303038 157286 324010 404750 52429 2506097 1059062 262144
BeginChars: 65536 52

StartChar: afii57664
Encoding: 1488 1488 0
Width: 677
VWidth: 0
Flags: W
HStem: -9.96875 100.306<168.962 296.034>
VStem: 83.46 212.825<0.480856 89.6999>
LayerCount: 2
Fore
SplineSet
474.83 237.706 m 4
 468.852 232.064 466.306 222.576 470.92 216.743 c 4
 507.016 171.114 542.584 135.775 581.231 97.6289 c 4
 587.229 91.71 588.831 64.7275 588.29 48.665 c 4
 587.58 27.5615 583.846 8.82324 576.905 -10.3867 c 4
 573.686 -19.2979 554.653 -19.1738 544.834 -6.78418 c 4
 406.664 167.562 310.544 281.825 198.784 392.312 c 4
 190.938 400.07 184.442 402.518 181.947 390.582 c 4
 165.595 312.363 161.79 269.847 156.299 193.061 c 4
 153.293 151.019 153.277 102.402 190.947 98.8496 c 4
 221.038 96.0117 251.129 93.1748 281.219 90.3369 c 4
 291.264 89.3896 298.239 79.248 297.943 69.3682 c 4
 297.391 50.9092 296.838 32.4492 296.285 13.9902 c 4
 295.809 -1.95117 287.32 -9.46387 276.129 -9.96875 c 4
 216.111 -12.6738 155.618 -10.2979 108.273 -0.65625 c 4
 97.877 1.46094 87.4473 10.1836 83.46 24.2939 c 4
 81.4326 31.4678 86.4951 92.3486 93.54 151.765 c 4
 103.836 238.599 108.828 305.63 117.066 405.884 c 4
 121.782 463.277 118.889 475.231 63.3633 527.416 c 4
 55.5938 534.718 62.9229 546.062 68.8799 554.026 c 4
 79.2109 567.838 102.241 588.924 118.504 599.06 c 4
 127.699 604.79 140.052 607.521 148.146 596.583 c 4
 230.647 485.096 288.711 418.939 415.957 276.803 c 4
 425.175 266.506 437.511 269.589 445.92 279.85 c 4
 489.019 332.438 538.535 386.091 487.578 441.091 c 6
 406.857 528.216 l 6
 400.001 535.617 401.643 547.849 408.479 554.988 c 4
 421.249 568.328 434.021 581.667 446.792 595.007 c 4
 457.821 606.526 469.155 606.423 477.806 599.304 c 4
 524.191 561.124 566.205 513.747 609.873 453.268 c 4
 616.084 444.666 621.018 429.213 613.284 416.755 c 4
 571.485 349.409 519.262 279.623 474.83 237.706 c 4
EndSplineSet
EndChar

StartChar: afii57665
Encoding: 1489 1489 1
Width: 685
VWidth: 0
Flags: W
HStem: -6.22266 92.3486<582.349 624.605> 0.932617 96.3135<96.0474 484.751> 475.585 104.176<104.517 460.492>
VStem: 493.767 64.75<110.928 439.658>
LayerCount: 2
Fore
SplineSet
346.33 579.761 m 4x70
 584.228 574.086 552.656 548.904 555.568 374.616 c 6
 558.517 198.215 l 5
 563.121 142.694 566.271 108.366 611.484 86.126 c 4
 620.857 81.5146 624.642 78.9834 624.58 66.9844 c 6
 625.298 8.96484 l 6
 625.255 0.493164 620.914 -6.69629 607.734 -6.22266 c 4xb0
 551.914 -4.2168 441.237 2.17773 357.516 0.932617 c 4
 277.167 -0.260742 206.221 -5.44238 140.917 -9.17871 c 4
 67.1445 -13.3984 58.5117 -16.1543 60.1797 16.042 c 6
 65.0459 81.7773 l 5
 64.5557 93.1865 75.7646 96.7695 90.2334 96.3398 c 4
 214.2 92.6602 342.405 92.5791 462.422 97.2461 c 4
 498.019 98.6309 493.81 189.529 493.767 211.246 c 6
 493.47 361.585 l 6
 493.427 383.302 485.832 472.2 413.236 475.585 c 4
 293.261 481.178 238.48 478.757 118.05 476.491 c 4
 103.576 476.219 91.3701 481.645 92.8613 491.054 c 4
 98.5098 525.435 104.497 559.734 111.168 593.928 c 4
 112.03 598.35 114.275 600.931 117.928 600.87 c 6
 130.563 600.663 l 6
 136.771 600.561 152.659 582.237 170.762 582.208 c 4
 235.689 582.102 298.339 580.899 346.33 579.761 c 4x70
EndSplineSet
EndChar

StartChar: afii57666
Encoding: 1490 1490 2
Width: 455
VWidth: 0
Flags: W
LayerCount: 2
Fore
SplineSet
234.023 186.007 m 0
 253.461 202.087 283.023 226.191 280.527 241.804 c 2
 257.825 383.757 l 2
 252.354 417.971 238.641 451.655 209.536 469.24 c 0
 183.667 484.871 131.931 516.133 131.931 516.133 c 2
 123.295 521.35 121.419 533.516 125.979 542.285 c 2
 151.534 591.441 l 2
 158.892 605.592 169.799 608.671 180.1 604.262 c 0
 235.329 580.621 264.636 561.029 323.51 515.221 c 0
 331.883 508.705 342.744 495.57 340.204 481.13 c 0
 338.013 468.668 322.389 382.326 334.227 311.174 c 2
 368.367 105.971 l 2
 373.081 77.6406 394.738 23.7803 395.095 18.25 c 0
 395.629 9.92871 392.946 7.32812 391.715 5.06543 c 0
 383.987 -9.13281 324.301 -7.57129 318.221 -7.22461 c 0
 312.272 -6.88477 309.602 1.09082 310.234 8.44629 c 0
 311.702 25.4971 311.037 44.7656 308.129 64.083 c 2
 296.733 139.772 l 2
 295.445 148.327 289.996 150.849 279.279 138.238 c 0
 221.309 70.0254 195.145 43.9219 132.047 -8.40527 c 0
 124.771 -14.4395 115.019 -14.8135 108.143 -7.27344 c 0
 86.4434 16.5215 74.7119 34.0059 61.6953 60.3545 c 0
 58.3027 67.2217 59.6641 76.0391 68.8633 80.8252 c 0
 126.031 110.562 198.603 156.704 234.023 186.007 c 0
EndSplineSet
EndChar

StartChar: afii57667
Encoding: 1491 1491 3
Width: 684
VWidth: 0
Flags: W
HStem: 476.069 99.1465<111.272 479.833> 476.976 108.519<72.7566 409.814>
VStem: 487.968 65.1865<2.62011 456.875>
LayerCount: 2
Fore
SplineSet
77.9424 597.214 m 2x60
 78.6904 601.656 81.0488 604.217 84.7002 604.157 c 2
 97.3379 603.949 l 2
 103.545 603.847 124.196 586.052 137.534 585.494 c 0x60
 196.311 583.038 286.246 576.409 356.093 575.216 c 0
 439.812 573.784 550.99 577.532 606.812 579.538 c 0
 619.992 580.012 624.332 572.823 624.373 564.351 c 2
 624.718 495.538 l 2
 624.771 484.645 617.457 481.664 611.113 478.259 c 2
 584.593 464.022 l 2
 556.937 449.177 553.666 419.401 553.593 375.101 c 2
 553.154 102.194 l 2
 553.162 78.0801 560.375 34.0693 560.375 34.0693 c 1
 559.636 25.667 557.955 23.1455 557 20.7256 c 0
 549.007 6.5127 492.109 -14.7031 486.154 -15.1182 c 0
 480.212 -15.5322 478.154 -4.82812 478.154 -0.680664 c 0
 480.199 34.5684 487.837 68.4424 487.968 107.694 c 2
 488.843 362.069 l 2
 488.916 383.786 493.095 474.686 457.498 476.069 c 0xa0
 337.484 480.737 205.742 479.241 85.3105 476.976 c 0
 70.8398 476.703 58.6338 482.129 60.123 491.538 c 2
 77.9424 597.214 l 2x60
EndSplineSet
EndChar

StartChar: afii57668
Encoding: 1492 1492 4
Width: 692
VWidth: 0
Flags: W
HStem: 475.075 98.4346<120.859 487.727> 475.981 108.519<80.6515 417.708>
VStem: 495.861 65.1885<19.845 451.764>
LayerCount: 2
Fore
SplineSet
119.146 300.645 m 0x20
 122.176 313.59 127.865 323.53 133.003 323.962 c 0
 159.985 326.23 174.258 326.549 187.867 326.029 c 0
 195.558 325.735 195.847 324.824 194.798 317.587 c 0
 190.904 290.723 187.086 278.466 183.873 256.205 c 2
 150.761 26.7471 l 1
 150.468 14.0869 143.236 10.6416 138.177 7.82617 c 0
 114.125 -4.51855 95.1367 -11.4072 68.9912 -16.4736 c 0
 63.0322 -17.6289 59.8809 -12.0352 60.0039 -1.14453 c 1
 75.5928 112.359 93.5391 191.266 119.146 300.645 c 0x20
86.1533 596.78 m 2
 86.9111 601.221 89.2607 603.785 92.9111 603.723 c 2
 104.982 603.515 l 2
 113.944 603.36 130.551 585.058 143.89 584.5 c 0x60
 202.665 582.044 294.14 574.704 363.986 573.51 c 0
 447.707 572.078 558.886 576.538 614.705 578.544 c 0
 627.886 579.018 632.226 571.828 632.269 563.356 c 2
 632.611 494.544 l 2
 632.674 482.545 627.101 484.097 618.455 478.231 c 2
 592.486 460.611 l 2
 570.354 445.594 561.562 418.407 561.486 374.106 c 2
 561.05 101.2 l 2
 561.057 77.0859 567.22 33.0752 567.22 33.0752 c 1
 566.479 24.6729 564.801 22.1514 563.845 19.7314 c 0
 555.852 5.51855 502.48 -15.6973 496.526 -16.1123 c 0
 490.584 -16.5264 488.526 -5.82324 488.526 -1.6748 c 0
 490.57 33.5742 495.729 67.4473 495.861 106.7 c 2
 496.736 361.075 l 2
 496.811 382.792 500.988 473.69 465.394 475.075 c 0xa0
 345.378 479.742 213.638 478.247 93.2061 475.981 c 0x60
 78.7344 475.709 66.5283 481.135 68.0186 490.544 c 2
 86.1533 596.78 l 2
EndSplineSet
EndChar

StartChar: afii57669
Encoding: 1493 1493 5
Width: 336
VWidth: 0
Flags: W
VStem: 197.727 65.1719<24.1464 439.684>
LayerCount: 2
Fore
SplineSet
192.607 2.87891 m 0
 194.651 37.7246 197.649 80.2637 197.727 119.067 c 2
 198.018 268.317 l 2
 198.113 317.669 196.609 336.191 193.976 383.757 c 0
 192.736 418.383 174.789 451.655 145.686 469.24 c 2
 68.0801 516.133 l 2
 59.8418 521.957 57.9902 533.309 62.1279 542.285 c 2
 87.6836 591.441 l 2
 94.6719 605.777 105.949 608.671 116.248 604.262 c 0
 171.479 580.621 200.784 561.029 259.659 515.221 c 0
 268.033 508.705 278.894 495.571 276.354 481.13 c 1
 276.354 481.13 262.729 381.032 262.773 308.901 c 2
 262.898 104.582 l 2
 262.914 80.7432 264.678 37.2197 264.678 37.2197 c 2
 263.938 28.9131 262.255 26.4268 261.299 24.0342 c 0
 253.306 9.98438 206.549 -10.9922 200.595 -11.4033 c 0
 194.651 -11.8125 192.607 -1.22168 192.607 2.87891 c 0
EndSplineSet
EndChar

StartChar: afii57670
Encoding: 1494 1494 6
Width: 363
VWidth: 0
Flags: W
VStem: 122.844 70.5898<24.4326 115.769>
LayerCount: 2
Fore
SplineSet
301.866 461.161 m 2
 269.699 411.191 l 2
 261.113 397.852 247.728 413.527 230.36 413.43 c 0
 182.362 413.159 171.362 357.912 174.117 312.148 c 2
 186.616 104.525 l 2
 188.05 80.7295 193.434 37.5752 193.434 37.5752 c 1
 192.876 29.2549 191.247 26.7324 190.343 24.3193 c 0
 182.657 10.0977 137.083 -12.6064 131.14 -13.1465 c 0
 125.207 -13.6855 122.934 -3.14258 122.844 0.957031 c 0
 124.128 35.8389 123.602 78.8613 121.144 117.587 c 2
 112.364 255.877 l 2
 107.354 334.812 104.061 335.982 119.686 359.773 c 2
 162.403 424.818 l 2
 171.201 438.215 164.467 451.62 153.302 458.65 c 2
 68.0801 512.312 l 2
 59.8428 518.136 57.9902 529.487 62.1279 538.464 c 2
 87.6846 587.621 l 2
 94.6729 601.956 105.948 604.85 116.249 600.441 c 0
 171.479 576.8 225.07 541.494 283.944 495.686 c 0
 292.318 489.17 309.804 473.49 301.866 461.161 c 2
EndSplineSet
EndChar

StartChar: afii57671
Encoding: 1495 1495 7
Width: 650
VWidth: 0
Flags: W
HStem: 476.11 104.209<179.114 490.813>
VStem: 85.3184 80.2891<9.3681 220.396> 105.357 56.6318<273.988 459.67> 518.897 72.0713<15.9216 446.438>
LayerCount: 2
Fore
SplineSet
161.989 384.081 m 0xb0
 158.611 263.532 161.707 142.678 165.607 22.4414 c 1
 164.868 14.1348 163.186 11.6484 162.229 9.25586 c 0
 154.235 -4.79492 99.2588 -25.7715 93.3047 -26.1816 c 0
 87.3604 -26.5908 85.3184 -16.001 85.3184 -11.9004 c 0xd0
 87.3613 22.9453 89.3877 65.5205 91.0557 104.288 c 2
 105.357 436.674 l 2
 106.904 472.629 57.0879 474.482 60.1348 491.595 c 2
 78.4531 594.457 l 2
 79.3047 598.887 81.5361 601.473 85.1855 601.402 c 2
 97.8359 601.189 l 2
 104.036 601.118 124.693 582.765 138.053 582.765 c 0
 202.435 582.622 328.574 581.453 376.587 580.319 c 0
 614.448 574.614 583.706 549.469 585.817 375.162 c 2
 589.196 96.3477 l 2
 589.485 72.5029 590.969 28.9893 590.969 28.9893 c 2
 590.225 20.6982 588.559 18.2178 587.602 15.8086 c 0
 579.594 1.74121 532.821 -19.2354 526.868 -19.625 c 0
 520.952 -20.0498 518.897 -9.45508 518.897 -5.34473 c 0
 520.952 29.4854 524.045 72.041 524 110.84 c 2
 523.704 362.123 l 2
 523.68 383.843 516.086 472.745 443.483 476.11 c 1
 358.391 481.555 284.641 483.974 218.274 476.346 c 0
 182.325 472.214 163.744 446.703 161.989 384.081 c 0xb0
EndSplineSet
EndChar

StartChar: afii57672
Encoding: 1496 1496 8
Width: 660
VWidth: 0
Flags: W
VStem: 533.061 62.6172<188.308 446.185>
LayerCount: 2
Fore
SplineSet
452.453 113.643 m 0
 481.354 130.775 531.657 176.234 533.061 302.959 c 0
 534.547 437.055 519.612 451.354 478.375 466.164 c 0
 453.609 475.06 420.486 463.398 406.714 441.806 c 0
 400.93 432.739 397.856 427.232 389.538 431.31 c 2
 374.217 438.819 l 2
 364.654 443.507 363.985 448.213 366.775 454.896 c 0
 381.895 491.116 401.036 526.331 426.914 559.861 c 0
 436.949 572.863 455.481 578.773 480.577 571.854 c 0
 637.014 528.721 595.086 505.41 595.678 384.406 c 0
 596.799 154.754 578.584 91.8496 485.969 42.3613 c 0
 419.721 6.96191 218.426 -63.6104 169.889 31.3662 c 0
 133.218 103.122 105.012 193.428 94.5068 276.296 c 0
 84.5596 354.762 85.5811 355.987 101.118 379.861 c 2
 142.306 443.149 l 2
 150.312 455.454 144.385 469.057 132.901 475.557 c 2
 68.3945 512.075 l 2
 59.6152 517.045 57.8848 529.458 62.4434 538.229 c 2
 88 587.384 l 2
 95.3555 601.534 106.265 604.613 116.563 600.204 c 0
 171.796 576.562 204.672 558.4 263.547 512.592 c 0
 271.92 506.076 289.388 490.407 281.468 478.067 c 2
 247.533 425.193 l 2
 236.426 407.885 220.618 429.852 201.322 432.874 c 0
 186.413 435.21 141.258 398.518 148.891 327.892 c 0
 157.28 250.25 173.679 175.338 208.91 111.549 c 0
 247.122 42.3623 388.966 76.0068 452.453 113.643 c 0
EndSplineSet
EndChar

StartChar: afii57673
Encoding: 1497 1497 9
Width: 333
VWidth: 0
Flags: W
VStem: 62.1279 211.044
LayerCount: 2
Fore
SplineSet
225.569 278.746 m 1
 217.576 264.695 179.188 252.321 173.235 251.911 c 0
 167.292 251.502 165.56 252.938 165.249 257.026 c 0
 172.557 310.807 213.702 418.827 145.686 464.839 c 1
 68.0801 511.73 l 2
 59.8418 517.555 57.9902 528.907 62.1279 537.883 c 2
 87.6846 587.04 l 2
 94.6719 601.376 105.949 604.269 116.248 599.86 c 0
 171.479 576.219 200.785 556.628 259.659 510.819 c 0
 268.033 504.304 275.712 491.169 273.172 476.728 c 0
 258.615 393.964 235.237 308.265 225.569 278.746 c 1
EndSplineSet
EndChar

StartChar: afii57674
Encoding: 1498 1498 10
Width: 684
VWidth: 0
Flags: W
HStem: 477.498 99.1455<111.272 479.833> 478.404 108.519<72.7566 409.814>
VStem: 484.994 77.1211<-184.425 -58.1832> 490.113 65.1738<-184.425 460.044>
LayerCount: 2
Fore
SplineSet
553.593 376.529 m 2x90
 555.287 -57.0176 l 2x90
 555.294 -80.8564 562.115 -171.352 562.115 -171.352 c 1
 561.375 -179.658 559.693 -182.145 558.736 -184.537 c 0
 550.744 -198.587 498.937 -219.564 492.98 -219.975 c 0
 487.037 -220.384 485.001 -209.794 484.994 -205.693 c 0xa0
 487.039 -170.847 490.08 -118.712 490.113 -79.9082 c 2
 488.843 363.498 l 2
 488.916 385.215 493.095 476.113 457.498 477.498 c 0x90
 337.484 482.165 205.742 480.67 85.3105 478.404 c 0
 70.8398 478.132 58.6338 483.558 60.123 492.967 c 2
 77.9404 598.643 l 2
 78.6904 603.085 81.0488 605.646 84.7002 605.585 c 2
 97.3369 605.378 l 2
 103.545 605.275 124.195 587.48 137.534 586.923 c 0x50
 196.311 584.467 286.246 577.838 356.093 576.644 c 0
 439.812 575.213 550.99 578.961 606.812 580.967 c 0
 619.99 581.44 624.332 574.251 624.373 565.779 c 2
 624.718 496.967 l 2
 624.771 486.073 617.457 483.093 611.113 479.688 c 2
 584.593 465.451 l 2
 556.937 450.604 553.666 420.83 553.593 376.529 c 2x90
EndSplineSet
EndChar

StartChar: afii57675
Encoding: 1499 1499 11
Width: 614
VWidth: 0
Flags: W
HStem: -8.29297 105.019<73.3544 354.186 455.592 477.882> 480.929 100.307<117.228 376.792>
VStem: 486.936 64.75<101.304 415.244>
LayerCount: 2
Fore
SplineSet
549.552 379.054 m 1
 551.686 198.601 l 2
 552.732 30.9648 555.973 -4.37598 495.117 -2.90332 c 0
 437.229 -1.50195 414.566 -0.481445 354.186 -1.51367 c 0
 284.339 -2.70801 185.896 -5.86035 127.119 -8.29297 c 0
 86.0742 -9.99219 57.4473 -13.0205 60.1807 3.4873 c 2
 73.21 82.1631 l 1
 76.2188 94.0723 83.9248 96.998 98.3965 96.7256 c 0
 218.828 94.46 335.576 92.9648 455.592 97.6318 c 0
 491.188 99.0166 486.774 189.916 486.936 211.632 c 2
 486.923 353.295 l 2
 487.539 421.03 445.66 443.246 356.83 464.497 c 0
 286.295 481.371 231.572 484.309 133.281 480.929 c 0
 115.266 480.31 107.354 487.818 108.625 497.259 c 2
 117.168 560.719 l 2
 119.941 581.327 128.659 581.62 185.505 581.235 c 0
 291.733 580.518 381.351 568.219 473.604 537.312 c 0
 582.783 500.735 550.076 486.644 549.552 379.054 c 1
EndSplineSet
EndChar

StartChar: afii57676
Encoding: 1500 1500 12
Width: 597
VWidth: 0
Flags: W
HStem: 481.51 104.209<149.186 439.625>
VStem: 61.375 109<773.514 855.756> 96.8115 52.376<588.105 794.283>
LayerCount: 2
Fore
SplineSet
323.994 585.719 m 0xa0
 545.315 581.923 506.538 569.932 533.941 386.801 c 0
 543.582 322.376 536.073 291.454 510.03 249.996 c 0
 474.484 193.413 441.231 147.38 396.571 98.2705 c 0
 369.911 68.9561 321.402 18.2441 289.708 -10.3506 c 0
 285.53 -14.1191 277.376 -16.79 273.321 -11.5518 c 0
 257.327 9.11035 250.366 18.3125 241.554 34.7236 c 0
 239.46 38.6221 241.379 43.624 245.352 46.6982 c 0
 268.376 64.5137 299.155 91.46 330.613 121.953 c 0
 382.547 172.291 426.509 227.479 464.301 290.398 c 0
 474.629 307.595 477.127 319.366 471.828 372.572 c 0
 469.676 394.186 463.495 478.13 390.893 481.51 c 0
 270.916 487.095 235.422 484.708 114.984 482.431 c 0
 100.493 482.157 89.1768 487.472 89.792 496.994 c 0
 90.4121 506.575 96.7539 551.584 96.8115 579.544 c 0xa0
 96.8857 614.502 96.958 649.459 97.0312 684.417 c 0
 97.1025 718.485 87.9307 775.585 66.1562 813.167 c 0
 62.0898 820.186 57.709 827.116 61.375 834.167 c 0
 64.6865 840.536 74.749 860.702 80.375 870.693 c 0
 88.1289 884.465 95.1748 888.247 104.906 884.011 c 0
 116.848 878.812 146.101 858.869 156.969 849.604 c 0
 163.461 844.07 177.095 833.456 170.375 822.198 c 0xc0
 145.341 780.257 149.049 770.493 149.094 717.042 c 0
 149.125 679.873 149.157 642.704 149.188 605.535 c 0
 149.197 594.496 158.966 588.528 172.213 588.044 c 0
 185.46 587.559 275.978 586.542 323.994 585.719 c 0xa0
EndSplineSet
EndChar

StartChar: afii57677
Encoding: 1501 1501 13
Width: 645
VWidth: 0
Flags: W
HStem: -6.49609 100.825<135.597 386.989 488.396 508.299> 483.723 101.369<154.033 449.42>
VStem: 61.3193 69.3379<102.019 340.262> 77.1963 60.8545<226.623 471.783> 519.74 64.749<103.106 442.544>
LayerCount: 2
Fore
SplineSet
138.051 348.993 m 2xd8
 130.657 184.965 l 2xe8
 126.742 98.1006 140.307 95.7637 187.106 94.3291 c 0
 275.482 91.6221 398.461 94.8086 488.396 99.4287 c 0
 523.972 101.257 519.718 191.712 519.74 213.429 c 2
 519.892 364.469 l 2
 519.924 396.179 512.06 473.119 439.658 479.42 c 0
 328.409 489.101 264.529 492.569 183.53 483.723 c 0
 150.064 480.067 142.474 447.118 138.051 348.993 c 2xd8
80.9258 596.812 m 0
 80.8418 601.315 84.0361 603.885 87.6846 603.754 c 2
 104.165 603.162 l 2
 110.369 602.939 131.013 585.12 144.362 585.092 c 0
 208.768 584.955 324.761 583.783 372.753 582.645 c 0
 616.798 576.97 579.529 551.795 581.989 377.5 c 2
 584.489 200.397 l 2
 586.854 32.7754 588.775 -2.5791 527.922 -1.10645 c 0
 470.034 0.294922 447.371 1.31543 386.989 0.283203 c 0
 317.143 -0.911133 181.58 -3.60547 122.824 -6.49609 c 0
 59.5391 -9.60938 57.0898 -29.3672 61.3193 137.894 c 0xe8
 62.4727 183.487 75.7061 402.699 77.1963 449.348 c 0xd8
 77.8164 468.742 82.0039 538.854 80.9258 596.812 c 0
EndSplineSet
EndChar

StartChar: afii57678
Encoding: 1502 1502 14
Width: 682
VWidth: 0
Flags: W
HStem: -7.29297 105.019<230.051 448.13 525.067 545.529>
VStem: 554.582 64.75<102.164 426.67>
LayerCount: 2
Fore
SplineSet
231.146 505.284 m 0
 236.913 495.297 247.083 496.911 259.28 514.725 c 2
 304.262 580.417 l 2
 314.418 595.25 339.92 598.061 372.29 593.039 c 0
 430.711 583.977 493.106 563.8 541.252 541.348 c 0
 651.382 489.988 617.724 491.18 617.198 383.589 c 1
 619.332 199.601 l 2
 620.38 31.9648 625.601 -4.4873 562.765 -1.90332 c 0
 521.888 -0.22168 505.714 0.518555 445.332 -0.513672 c 0
 375.484 -1.70801 342.844 -3.61035 283.816 -7.29297 c 0
 242.814 -9.85059 214.144 -12.0205 216.878 4.4873 c 2
 229.906 83.1631 l 1
 232.916 95.0723 240.628 98.2422 255.094 97.7256 c 0
 374.525 93.46 403.224 93.9648 523.238 98.6318 c 0
 558.834 100.017 554.422 190.916 554.582 212.632 c 2
 554.568 357.83 l 2
 554.562 427.067 520.427 446.473 457.477 465.497 c 0
 378.277 489.433 347.197 489.836 293.859 477.333 c 0
 231.212 462.646 206.897 375.527 192.193 299.073 c 2
 149.735 78.3301 l 2
 145.231 54.9209 139.667 17.3428 139.667 17.3428 c 2
 137.335 9.33594 135.203 7.22168 133.802 5.05957 c 0
 123.244 -7.18066 71.3721 -8.21094 65.4512 -7.46191 c 0
 59.54 -6.71484 59.583 4.07031 60.376 8.09375 c 0
 69.1182 41.8867 81.2256 67.0439 88.5928 105.143 c 2
 120.812 271.775 l 2
 131.341 326.229 162.657 424.792 125.351 471.334 c 2
 88.4619 517.354 l 2
 81.2988 526.29 75.9199 532.37 87.6787 544.163 c 2
 129.219 585.822 l 2
 142.152 598.793 150.172 602.839 163.758 590.05 c 0
 193.434 562.115 209.542 542.705 231.146 505.284 c 0
EndSplineSet
EndChar

StartChar: afii57679
Encoding: 1503 1503 15
Width: 352
VWidth: 0
Flags: W
VStem: 153.312 65.4746<-172.887 21.3651> 154.298 51.8711<77.7924 371.046>
LayerCount: 2
Fore
SplineSet
290.496 470.146 m 0x40
 262.374 433.062 240.442 396.763 220.378 358.582 c 0
 209.899 338.646 204.757 332.683 206.169 289.891 c 2x40
 218.787 -92.4365 l 2
 219.572 -116.263 222.031 -159.744 222.031 -159.744 c 2
 221.474 -168.064 219.846 -170.587 218.94 -173 c 0
 211.257 -187.221 164.968 -209.212 159.022 -209.751 c 0
 153.091 -210.29 150.816 -199.747 150.729 -195.647 c 0
 152.012 -160.766 153.191 -118.179 153.312 -79.375 c 2x80
 154.298 237.013 l 2
 154.512 306.015 149.886 332.077 159.587 346.465 c 2
 203.916 412.213 l 2
 207.688 417.811 207.58 428.017 196.737 435.535 c 0
 159.449 461.391 109.492 491.372 68.0801 513.396 c 1
 59.8428 519.222 57.9902 530.574 62.1279 539.55 c 2
 87.6846 588.707 l 2
 94.6729 603.043 105.948 605.936 116.249 601.527 c 0
 171.479 577.886 214.927 550.045 273.802 504.236 c 0
 282.176 497.721 299.355 481.828 290.496 470.146 c 0x40
EndSplineSet
EndChar

StartChar: afii57680
Encoding: 1504 1504 16
Width: 405
VWidth: 0
Flags: W
HStem: -10.6768 108.435<71.72 207.793>
VStem: 266.289 65.1748<88.7776 435.299>
LayerCount: 2
Fore
SplineSet
246.242 88.2305 m 2
 261.026 87.2588 266.21 99.5039 266.289 134.982 c 2
 266.58 263.914 l 2
 266.691 313.266 265.173 331.788 262.539 379.354 c 0
 261.3 413.979 243.278 447.296 214.25 464.837 c 2
 136.644 511.729 l 2
 128.405 517.553 126.554 528.905 130.69 537.882 c 2
 156.248 587.038 l 2
 163.235 601.374 174.513 604.267 184.812 599.858 c 0
 240.044 576.217 269.349 556.626 328.223 510.817 c 0
 336.597 504.302 347.458 491.167 344.918 476.726 c 1
 344.918 476.726 331.291 376.628 331.338 304.497 c 2
 331.464 113.413 l 2
 331.479 89.5752 336.678 20.9297 337.407 12.7178 c 0
 338.557 -0.188477 333.305 -4.03027 325.409 -3.72754 c 0
 316.952 -3.40234 250.732 -2.48047 206.277 -3.54688 c 0
 159.063 -4.67969 124.193 -7.8877 72.1631 -10.6768 c 0
 62.6191 -11.4717 58.8975 -4.01758 60.2793 4.80176 c 2
 72.291 81.4756 l 2
 73.1641 87.0459 77.8506 99.2988 101.299 97.7578 c 2
 246.242 88.2305 l 2
EndSplineSet
EndChar

StartChar: afii57681
Encoding: 1505 1505 17
Width: 628
VWidth: 0
Flags: W
HStem: 487.178 100.055<68.8483 128.544>
VStem: 499.154 62.6162<165.948 410.213>
LayerCount: 2
Fore
SplineSet
127.64 447.065 m 2
 139.671 466.188 117.851 481.298 84.7852 487.178 c 0
 67.0361 490.334 58.8564 494.066 60.1279 503.508 c 0
 62.9756 524.661 65.8232 545.814 68.6709 566.968 c 0
 71.4443 587.576 82.9404 587.616 139.786 587.232 c 0
 246.016 586.514 383.622 574.674 475.724 543.309 c 0
 599.901 501.018 565.407 501.173 561.771 385.05 c 0
 554.615 156.676 554.013 88.6768 472.111 44.1885 c 0
 406.107 8.33496 226.706 -46.6895 156.03 33.1924 c 0
 102.277 93.9492 78.3877 190.966 70.042 278.123 c 0
 63.5615 345.801 71.5459 357.931 86.7061 382.021 c 2
 127.64 447.065 l 2
358.946 467.463 m 0
 240.742 487.732 137.295 465.464 134.479 330.051 c 0
 132.576 238.643 148.805 163.648 191.013 113.376 c 0
 241.833 52.8438 375.107 77.834 438.597 115.47 c 0
 467.498 132.603 494.327 178.147 499.154 279.864 c 0
 505.143 406.05 479.027 446.872 358.946 467.463 c 0
EndSplineSet
EndChar

StartChar: afii57682
Encoding: 1506 1506 18
Width: 687
VWidth: 0
Flags: W
HStem: -122.973 118.772<72.9988 158.609> 505.633 98.709<81.5427 108.215 413.312 491.301>
LayerCount: 2
Fore
SplineSet
304.788 43.1592 m 0
 334.041 51.7441 325.42 88.8252 310.901 135.906 c 2
 256.962 310.833 l 2
 242.42 357.994 235.672 377.464 220.889 422.749 c 0
 210.144 455.661 190.168 482.158 163.922 488.086 c 2
 86.2207 505.633 l 2
 76.3799 507.854 70.8467 518.91 72.4688 528.66 c 2
 81.5605 583.312 l 2
 84.1777 599.044 93.5986 605.347 104.756 604.342 c 0
 164.593 598.95 218.726 585.348 258.074 567.075 c 0
 267.697 562.607 287.328 554.211 284.498 539.823 c 0
 276.15 497.384 288.267 435.914 308.979 366.821 c 2
 385.624 111.167 l 2
 391.409 91.873 398.075 77.0723 414.448 84.5205 c 0
 434.533 93.6572 441.646 98.0537 461.612 111.622 c 0
 508.856 143.726 532.985 155.205 543.026 348.63 c 0
 546.987 424.938 532.656 471.597 500.106 481.434 c 0
 471.176 490.178 442.243 498.922 413.312 507.666 c 0
 403.653 510.585 398.825 521.907 401.073 531.532 c 0
 405.272 549.517 409.474 567.5 413.672 585.483 c 0
 417.299 601.015 427.106 606.696 438.177 604.974 c 0
 497.539 595.733 546.943 580.466 599.159 554.185 c 0
 608.637 549.415 630.624 537.42 626.801 523.265 c 0
 613.301 473.29 606.909 424.196 604.835 387.438 c 0
 590.616 135.493 570.932 95.8545 495.128 40.3418 c 0
 412.705 -20.0186 201.438 -99.1689 70.7539 -122.973 c 0
 66.0674 -123.826 59.3994 -121.194 60.043 -106.266 c 0
 60.7246 -90.4395 71.0811 -38.1689 73.5498 -22.1348 c 0
 74.8672 -13.584 77.1875 -5.87598 91.7246 -4.2002 c 0
 149.42 2.45312 247.819 26.4385 304.788 43.1592 c 0
EndSplineSet
EndChar

StartChar: afii57683
Encoding: 1507 1507 19
Width: 574
VWidth: 0
Flags: W
HStem: 237.168 95.582<204.135 257.221> 486.892 99.5869<152.919 329.463>
VStem: 443.455 64.3486<-183.805 420.445>
LayerCount: 2
Fore
SplineSet
437.854 -205.067 m 0
 440.78 -151.279 443.454 -130.86 443.455 -74.4854 c 2
 443.456 358.496 l 2
 443.456 426.234 402.193 448.447 313.363 469.698 c 0
 269.017 480.308 230.928 485.659 184.315 486.892 c 0
 160.244 487.528 160.102 487.518 152.917 465.632 c 0
 137.69 419.24 130.546 382.758 183.465 362.534 c 2
 183.465 362.534 235.422 342.679 261.4 332.75 c 0
 270.824 329.148 274.978 317.64 272.139 308.173 c 0
 266.834 290.482 261.529 272.793 256.227 255.104 c 0
 251.646 239.827 241.432 234.445 230.562 237.168 c 0
 172.388 251.739 126.353 269.839 80.1016 296.051 c 0
 70.8711 301.282 57.3545 312.682 60.4512 327.014 c 0
 73.4854 387.326 82.6338 418.349 95.9971 458.731 c 0
 98.3477 465.833 98.9785 484.741 79.8154 488.13 c 0
 71.4658 489.606 63.8506 493.024 65.1582 502.46 c 0
 69.5752 534.342 74.3525 566.189 77.7031 598.21 c 0
 78.1719 602.695 80.7852 605.217 84.4346 605.155 c 2
 97.085 604.942 l 2
 103.285 604.838 120.407 586.578 136.135 586.479 c 0
 244.732 585.779 337.885 573.42 430.14 542.513 c 0
 539.317 505.938 505.661 491.846 506.084 384.255 c 2
 507.804 -52.9561 l 2
 507.91 -80.2305 515.377 -166.207 514.976 -170.726 c 0
 514.235 -179.032 512.827 -181.647 511.597 -183.911 c 0
 503.868 -198.109 451.795 -218.938 445.842 -219.349 c 0
 439.897 -219.758 437.633 -209.161 437.854 -205.067 c 0
EndSplineSet
EndChar

StartChar: afii57684
Encoding: 1508 1508 20
Width: 600
VWidth: 0
Flags: W
HStem: -17.3135 107.33<73.3535 340.043 441.449 464.46> 472.671 99.585<182.242 358.794>
VStem: 472.793 64.75<92.2836 406.223>
LayerCount: 2
Fore
SplineSet
126.409 590.721 m 2
 132.608 590.65 149.73 572.356 165.458 572.256 c 0
 274.057 571.559 367.208 559.198 459.463 528.292 c 0
 568.642 491.715 535.935 477.624 535.408 370.033 c 1
 537.543 189.58 l 2
 538.59 21.9443 541.829 -13.3955 480.975 -11.9229 c 0
 423.087 -10.5225 400.424 -9.50195 340.043 -10.5342 c 0
 270.194 -11.7285 185.896 -14.8799 127.119 -17.3135 c 0
 86.0732 -19.0117 57.4463 -22.041 60.1807 -5.53223 c 2
 73.209 73.1436 l 1
 76.2178 85.0518 83.9297 90.4902 98.3955 90.0166 c 0
 218.953 86.0645 321.434 83.9443 441.449 88.6113 c 0
 477.045 89.9961 472.633 180.896 472.793 202.611 c 2
 472.779 344.274 l 2
 473.396 412.01 431.518 434.226 342.688 455.477 c 0
 298.34 466.086 260.251 471.438 213.64 472.671 c 0
 189.567 473.308 189.425 473.296 182.24 451.41 c 0
 167.015 405.02 160.246 369.492 212.79 348.312 c 1
 290.725 318.529 l 2
 300.147 314.928 304.302 303.419 301.463 293.951 c 2
 285.55 240.882 l 2
 280.969 225.605 270.755 220.224 259.887 222.946 c 0
 201.711 237.518 155.676 255.617 109.426 281.829 c 0
 100.194 287.061 86.6787 298.46 89.7764 312.792 c 0
 102.81 373.104 111.958 404.127 125.32 444.51 c 0
 127.671 451.611 128.302 470.52 109.14 473.908 c 0
 100.79 475.386 93.1748 478.803 94.4814 488.239 c 0
 98.8984 520.12 103.677 551.968 107.026 583.989 c 0
 107.496 588.475 110.108 591.005 113.76 590.934 c 2
 126.409 590.721 l 2
EndSplineSet
EndChar

StartChar: afii57685
Encoding: 1509 1509 21
Width: 602
VWidth: 0
Flags: W
VStem: 173.12 71.3037<-172.887 -81.1939>
LayerCount: 2
Fore
SplineSet
237.196 118.047 m 0
 225.611 107.381 222.14 95.8838 223.476 79.6641 c 2
 237.643 -92.4365 l 2
 239.599 -116.195 244.424 -159.744 244.424 -159.744 c 1
 243.865 -168.064 242.236 -170.587 241.333 -173 c 0
 233.647 -187.221 187.358 -209.212 181.415 -209.751 c 0
 175.481 -210.29 173.209 -199.747 173.12 -195.647 c 0
 174.402 -160.766 174.357 -118.117 172.17 -79.375 c 2
 154.298 237.013 l 2
 150.405 305.905 146.918 335.505 155.42 350.632 c 2
 193.015 417.517 l 2
 196.321 423.401 196.679 433.32 185.837 440.838 c 0
 148.549 466.694 109.492 491.372 68.0801 513.396 c 1
 59.8428 519.222 57.9902 530.574 62.1279 539.55 c 2
 87.6846 588.707 l 2
 94.6729 603.043 105.948 605.936 116.249 601.527 c 0
 171.479 577.886 204.025 555.348 262.899 509.54 c 0
 271.273 503.024 288.455 487.132 279.595 475.448 c 0
 251.473 438.365 229.36 402.016 211.833 361.823 c 0
 200.073 334.858 202.655 332.561 206.169 289.891 c 2
 214.492 188.777 l 2
 215.953 171.038 226.85 167.927 239.662 180.186 c 0
 374.182 308.884 470.74 406.61 430.561 448.548 c 2
 349.33 533.328 l 2
 342.351 540.612 343.735 552.856 350.433 560.127 c 2
 387.968 600.878 l 2
 398.771 612.608 410.104 612.724 418.892 605.771 c 0
 466.007 568.496 489.161 541.916 533.988 482.291 c 0
 540.363 473.811 546.256 458.04 538.104 445.852 c 0
 474.604 350.894 364.139 234.917 237.196 118.047 c 0
EndSplineSet
EndChar

StartChar: afii57686
Encoding: 1510 1510 22
Width: 628
VWidth: 0
Flags: W
HStem: -8.16992 105.019<92.058 365.517> 503.11 99.4189<69.4143 171.546>
LayerCount: 2
Fore
SplineSet
410.459 95.8164 m 0
 430.726 96.2559 424.39 103.844 413.964 112.307 c 2
 208.492 279.089 l 2
 147.935 328.244 160.08 351.778 180.352 408.728 c 2
 194.754 449.189 l 2
 198.896 460.825 201.593 472.514 188.939 476.254 c 0
 145.427 489.116 120.16 494.146 74.1191 503.11 c 0
 64.2158 505.038 58.6875 516.321 60.2676 526.078 c 0
 63.2207 544.309 66.1729 562.539 69.125 580.769 c 0
 71.6748 596.512 81.0547 603.486 92.2168 602.529 c 0
 152.074 597.395 189.278 588.716 256.09 563.097 c 0
 268.045 558.513 289.706 548.178 282.644 535.327 c 0
 257.124 488.891 239.095 444.676 228.319 416.562 c 0
 211.83 373.538 231.897 341.701 267.432 312.675 c 0
 323.26 267.07 349.756 268.995 393.332 310.099 c 0
 450.295 363.829 494.106 410.815 458.182 441.974 c 0
 428.613 467.616 399.047 493.259 369.479 518.901 c 0
 361.856 525.512 362.107 537.831 368.104 545.688 c 0
 379.312 560.367 390.517 575.047 401.723 589.727 c 0
 411.398 602.403 422.674 603.562 432.062 597.452 c 0
 482.416 564.68 507.922 540.348 558.058 485.11 c 0
 565.188 477.255 572.872 461.89 565.517 449.206 c 0
 508.014 350.06 468.54 309.955 388.637 238.517 c 0
 377.865 228.887 388.22 215.291 405.278 201.457 c 2
 485.327 136.549 l 2
 504.19 121.252 517.001 111.649 527.331 102.305 c 0
 533.516 96.7109 535.165 90.8594 535.936 87.1807 c 0
 539.251 71.3594 524.253 26.7676 520.498 18.1338 c 0
 515.716 7.1416 509.252 -3.32227 495.685 -2.78027 c 0
 437.706 -0.466797 412.354 -0.359375 351.975 -1.3916 c 0
 282.127 -2.58594 204.646 -5.7373 145.87 -8.16992 c 0
 104.822 -9.86914 76.1963 -12.8984 78.9307 3.61035 c 0
 83.2734 29.835 91.959 82.2861 91.959 82.2861 c 2
 93.9658 94.4043 102.675 97.1211 117.146 96.8486 c 0
 216.119 94.9863 312.84 93.6973 410.459 95.8164 c 0
EndSplineSet
EndChar

StartChar: afii57687
Encoding: 1511 1511 23
Width: 579
VWidth: 0
Flags: W
HStem: 482.309 105.731<73.3108 421.636>
VStem: 128.773 49.9775<177.32 300.768> 136.039 69.9951<-174.852 -85.5343> 456.055 63.4141<276.104 388.52>
LayerCount: 2
Fore
SplineSet
128.773 252.342 m 6xd0
 128.396 274.437 155.612 313.981 170.543 315.881 c 4
 175.479 316.509 178.313 315.123 178.751 307.014 c 6xd0
 200.42 -94.4609 l 6
 201.704 -118.265 206.034 -161.611 206.034 -161.611 c 6
 205.77 -169.946 204.23 -172.525 203.412 -174.967 c 4
 196.233 -189.451 150.747 -213.058 144.826 -213.807 c 4
 138.916 -214.555 136.272 -204.099 136.039 -200.004 c 4xb0
 136.093 -165.099 135.19 -122.511 134.526 -83.7129 c 6
 128.773 252.342 l 6xd0
60.1641 496.871 m 4
 66.5381 531.052 72.9121 565.232 79.2871 599.414 c 4
 80.1123 603.843 82.3945 606.416 86.0459 606.356 c 4
 90.2578 606.287 94.4697 606.218 98.6826 606.148 c 4
 110.488 605.955 126.22 588.344 142.887 588.04 c 4
 159.411 587.74 257.785 586.742 305.795 585.596 c 4
 549.342 579.779 506.922 556.503 515.742 388.52 c 6
 519.469 317.56 l 6
 520.285 302.015 519.301 285.646 508.432 269.403 c 4
 463.148 201.72 391.928 124.218 322.957 72.5596 c 4
 317.707 68.627 311.445 68.8711 307.58 73.2158 c 4
 299.662 82.1152 295.029 130.673 296.117 140.848 c 4
 296.748 146.746 297.234 151.588 303.719 156.256 c 4
 352.629 191.47 406.902 239.62 446.102 290.276 c 4
 451.701 297.511 456.609 304.875 456.055 317.437 c 6
 453.629 372.449 l 6
 452.672 394.149 445.297 478.008 372.693 481.387 c 4
 252.717 486.972 205.794 484.586 85.3574 482.309 c 4
 70.8652 482.034 58.415 487.491 60.1641 496.871 c 4
EndSplineSet
EndChar

StartChar: afii57688
Encoding: 1512 1512 24
Width: 570
VWidth: 0
Flags: W
HStem: 476.615 104.208<71.7728 410.161>
VStem: 443.348 65.1963<16.4255 440.714>
LayerCount: 2
Fore
SplineSet
508.544 96.8516 m 2
 508.833 73.0068 510.315 29.4932 510.315 29.4932 c 2
 509.571 21.2021 507.906 18.7217 506.949 16.3125 c 0
 498.941 2.24512 452.17 -18.7314 446.218 -19.1211 c 0
 440.301 -19.5459 438.245 -8.95117 438.245 -4.84082 c 0
 440.301 29.9893 443.394 72.5449 443.348 111.344 c 2
 443.053 362.627 l 2
 443.026 384.347 435.435 473.249 362.831 476.615 c 0
 242.855 482.213 205.753 479.804 85.3164 477.536 c 0
 70.8242 477.253 58.6348 482.674 60.123 492.099 c 0
 65.7568 526.469 71.7451 560.769 78.4424 594.961 c 0
 79.293 599.391 81.5244 601.979 85.1748 601.906 c 2
 97.8242 601.693 l 2
 104.024 601.623 124.684 583.269 138.041 583.269 c 0
 202.424 583.127 247.922 581.957 295.935 580.823 c 0
 533.797 575.119 503.056 549.974 505.166 375.666 c 2
 508.544 96.8516 l 2
EndSplineSet
EndChar

StartChar: afii57689
Encoding: 1513 1513 25
Width: 755
VWidth: 0
Flags: W
VStem: 279.76 79.668<169.612 244.542>
LayerCount: 2
Fore
SplineSet
483.112 117.728 m 0
 531.713 146.982 570.245 211.13 586.802 338.864 c 0
 604.037 471.856 587.822 482.708 546.511 507.226 c 0
 538.097 512.22 534.44 521.659 539.532 531.372 c 2
 568.604 586.827 l 2
 576.205 601.323 587.739 603.663 602.33 596.496 c 0
 637.39 579.275 663.792 563.128 680.491 549.681 c 0
 721.65 516.541 665.523 512.954 659.014 424.598 c 0
 642.033 194.168 609.242 95.9346 516.629 46.4473 c 0
 450.379 11.0469 208.779 -59.5254 160.241 35.4512 c 0
 123.571 107.207 96.0957 203.165 84.8604 285.938 c 0
 75.9238 351.776 78.666 358.371 91.4727 389.503 c 2
 117.508 452.791 l 2
 123.093 466.368 119.317 478.245 108.104 485.197 c 2
 68.3467 509.847 l 2
 59.7715 515.162 57.835 527.229 62.3945 535.999 c 2
 87.9502 585.155 l 2
 95.3066 599.306 106.218 602.391 116.515 597.976 c 0
 149.271 583.932 207.648 548.249 228.392 527.947 c 0
 235.974 520.525 254.231 505.763 246.312 493.423 c 2
 212.379 440.549 l 2
 201.271 423.24 195.82 439.492 176.523 442.516 c 0
 161.614 444.852 131.611 408.159 139.244 337.532 c 0
 147.636 259.892 164.032 179.423 199.265 115.634 c 0
 237.478 46.4473 419.88 79.665 483.112 117.728 c 0
279.76 185.424 m 0
 292.928 221.903 309.377 263.152 320.729 304.381 c 0
 335.866 359.351 362.194 467.558 323.64 513.101 c 0
 317.119 520.801 313.108 530.472 317.658 539.247 c 0
 326.159 555.642 334.66 572.036 343.161 588.432 c 0
 350.503 602.59 361.466 605.812 371.712 601.282 c 0
 404.102 586.962 436.838 566.594 455.019 547.948 c 0
 462.425 540.352 479.854 521.042 467.554 506.866 c 0
 430.401 464.052 417.171 403.365 397.104 334.081 c 2
 376.387 262.545 l 2
 369.755 239.647 361.114 190.882 359.428 186.671 c 0
 356.323 178.931 354.146 176.905 352.391 175.02 c 0
 340.582 162.344 295.089 161.081 283.29 169.446 c 0
 278.43 172.892 278.367 181.566 279.76 185.424 c 0
EndSplineSet
EndChar

StartChar: afii57690
Encoding: 1514 1514 26
Width: 729
VWidth: 0
Flags: W
HStem: -9.83887 106.24<72.4334 200.587> 476.11 104.209<265.988 569.358>
VStem: 200.883 50.4854<167.512 462.668> 602.547 65.1943<15.9216 440.21>
LayerCount: 2
Fore
SplineSet
251.368 384.081 m 0
 251.741 263.116 257.614 139.686 264.987 20.9922 c 0
 265.731 8.99512 261.59 5.17383 256.088 2.28613 c 0
 244.047 -4.03418 198.641 -6.35938 192.685 -6.74023 c 0
 154.177 -9.2002 85.4727 -10.6553 68.4424 -9.83887 c 0
 61.8379 -9.52246 59.1348 -4.71289 60.2402 3.4873 c 0
 64.2188 32.9941 67.7764 56.998 72.4082 88.6436 c 0
 72.8945 91.9736 76.7246 96.5039 82.335 96.4014 c 0
 99.1455 96.0928 167.876 90.6152 190.072 94.667 c 0
 198.601 96.2236 201.091 98.4697 200.883 109.42 c 2
 194.737 432.507 l 2
 193.7 487.01 134.608 468.729 138.682 491.595 c 2
 157 594.457 l 2
 157.851 598.887 160.082 601.473 163.731 601.402 c 2
 176.382 601.189 l 2
 182.582 601.118 203.239 582.765 216.598 582.765 c 0
 280.979 582.622 407.12 581.453 455.133 580.319 c 0
 692.993 574.614 662.254 549.47 664.364 375.162 c 2
 667.741 96.3477 l 2
 668.03 72.5029 669.516 28.9893 669.516 28.9893 c 2
 668.771 20.6982 667.104 18.2178 666.147 15.8086 c 0
 658.141 1.74121 611.368 -19.2354 605.416 -19.625 c 0
 599.497 -20.0498 597.442 -9.45508 597.442 -5.34473 c 0
 599.497 29.4854 602.592 72.041 602.547 110.84 c 2
 602.252 362.123 l 2
 602.225 383.843 594.633 472.745 522.03 476.11 c 1
 436.938 481.555 370.686 483.974 304.319 476.346 c 0
 268.37 472.214 251.178 446.728 251.368 384.081 c 0
EndSplineSet
EndChar

StartChar: period
Encoding: 46 46 28
Width: 239
Flags: W
HStem: -15 142<75.3461 164.369>
VStem: 60 119<-0.216797 112.605>
LayerCount: 2
Fore
SplineSet
120 127 m 4
 149 127 179 105 179 57 c 4
 179 2 146 -15 120 -15 c 4
 88 -15 60 9 60 57 c 4
 60 94 76 127 120 127 c 4
EndSplineSet
EndChar

StartChar: exclam
Encoding: 33 33 29
Width: 239
VWidth: 0
Flags: W
HStem: -12.9043 137.357<74.8546 167.348>
VStem: 60 119<1.4478 111.437> 70.9248 96.1162<513.775 701.502>
LayerCount: 2
Fore
SplineSet
119 124.453 m 0xc0
 156.193 125.939 179 101.652 179 60.6113 c 0
 179 10.5908 160.093 -12.9043 122.215 -12.9043 c 0
 92.9893 -12.9043 60 4.0957 60 59.0957 c 0
 60 105.311 90.0234 123.296 119 124.453 c 0xc0
152.404 271.838 m 2
 151.557 252.634 126.392 244.15 106.299 241.078 c 0
 101.425 240.333 93.5596 242.348 92.2158 255.724 c 0
 81.1484 365.886 74.6836 478.32 70.9248 614.676 c 0
 70.2676 638.506 67.8379 677.319 67.6357 681.852 c 0
 67.2236 691.078 69.3535 699.11 75.8027 701.624 c 0
 95.7734 709.408 144.435 710.711 161.353 707 c 0
 167.172 705.724 170.202 697.256 170.077 693.157 c 0
 169.008 658.073 168.752 642.396 167.041 603.63 c 2xa0
 152.404 271.838 l 2
EndSplineSet
EndChar

StartChar: quotedbl
Encoding: 34 34 30
Width: 385
VWidth: 0
Flags: W
HStem: 434.338 274.738
VStem: 60.1592 104.156<503.714 702.622> 221.159 104.156<503.714 702.622>
LayerCount: 2
Fore
SplineSet
114.984 709.076 m 0
 151.82 709.49 166.546 701.346 164.315 645.234 c 0
 158.979 511.012 141.829 434.338 115.342 434.338 c 0
 94.127 434.338 64.2754 548.448 60.1592 643.718 c 0
 57.6191 702.505 85.9863 708.749 114.984 709.076 c 0
275.984 709.076 m 0
 312.82 709.49 327.546 701.346 325.315 645.234 c 0
 319.979 511.012 302.829 434.338 276.342 434.338 c 0
 255.127 434.338 225.275 548.448 221.159 643.718 c 0
 218.619 702.505 246.986 708.749 275.984 709.076 c 0
EndSplineSet
EndChar

StartChar: quotesingle
Encoding: 39 39 31
Width: 224
VWidth: 0
Flags: W
HStem: 434.338 274.738
VStem: 60.1592 104.156<503.714 702.622>
LayerCount: 2
Fore
SplineSet
114.984 709.076 m 0
 151.82 709.49 166.546 701.346 164.315 645.234 c 0
 158.979 511.012 141.829 434.338 115.342 434.338 c 0
 94.127 434.338 64.2754 548.448 60.1592 643.718 c 0
 57.6191 702.505 85.9863 708.749 114.984 709.076 c 0
EndSplineSet
EndChar

StartChar: parenleft
Encoding: 40 40 32
Width: 310
VWidth: 0
Flags: W
VStem: 60 79.6914<127.204 482.072>
LayerCount: 2
Fore
SplineSet
208.744 750.216 m 0
 220.833 766.891 233.643 765.457 235.658 752.635 c 2
 240.337 722.882 l 2
 241.372 716.302 241.494 710.848 238.826 706.188 c 0
 164.3 575.971 139.691 461.953 139.691 303.662 c 0
 139.691 139.352 170.358 15.877 246.594 -112.978 c 0
 249.758 -118.326 251.238 -124.07 249.866 -132.726 c 2
 245.125 -162.635 l 2
 243.185 -174.869 233.968 -175.604 222.904 -161.19 c 0
 120.69 -28.0332 60 122.95 60 303.662 c 0
 60 475.849 114.779 620.606 208.744 750.216 c 0
EndSplineSet
EndChar

StartChar: parenright
Encoding: 41 41 33
Width: 310
VWidth: 0
Flags: W
VStem: 170.688 79.6914<127.203 482.072>
LayerCount: 2
Fore
SplineSet
101.635 750.216 m 0
 195.6 620.606 250.379 475.849 250.379 303.662 c 0
 250.379 122.95 189.688 -28.0332 87.4736 -161.19 c 0
 76.4102 -175.604 67.1934 -174.869 65.2539 -162.635 c 2
 60.5127 -132.726 l 2
 59.1396 -124.07 60.6201 -118.326 63.7852 -112.978 c 0
 140.021 15.877 170.688 139.351 170.688 303.662 c 0
 170.688 461.952 146.079 575.971 71.5518 706.188 c 0
 68.8848 710.848 69.0068 716.302 70.042 722.882 c 2
 74.7197 752.635 l 2
 76.7363 765.457 89.5459 766.891 101.635 750.216 c 0
EndSplineSet
EndChar

StartChar: comma
Encoding: 44 44 34
Width: 243
VWidth: 0
Flags: W
LayerCount: 2
Fore
SplineSet
70.3633 26.1494 m 0
 58.8516 52.6055 67.2471 94.417 99.9092 108.629 c 0
 123.12 118.729 155.61 114.406 174.095 71.9238 c 0
 194.842 22.4102 175.657 -35.4814 156.448 -74.4131 c 0
 147.246 -93.0635 125.869 -127.745 97.1787 -159.215 c 0
 92.126 -164.758 85.6064 -164.146 78.6436 -160.753 c 0
 72.3135 -157.668 64.9951 -150.449 62.04 -144.651 c 0
 58.791 -138.278 59.5205 -133.78 63.5283 -129.433 c 0
 87.8145 -103.079 103.418 -72.292 105.622 -47.9375 c 0
 107.185 -30.6689 101.406 -15.2314 92.7588 -4.08887 c 0
 87.5488 2.625 73.8398 18.1602 70.3633 26.1494 c 0
EndSplineSet
EndChar

StartChar: hyphen
Encoding: 45 45 35
Width: 391
VWidth: 0
Flags: W
HStem: 309.312 70.2119<66.7864 322.681>
VStem: 60.4365 270.231
LayerCount: 2
Fore
SplineSet
204.611 309.312 m 0
 145.126 309.312 115.985 304.448 71.3691 306.049 c 0
 62.1475 306.379 58.6924 310.738 60.4365 321.174 c 0
 62.6426 334.377 64.8496 347.582 67.0557 360.786 c 0
 69.2979 374.201 72.54 382.913 86.5713 382.523 c 0
 111.581 381.828 124.529 379.523 185.217 379.523 c 0
 242.814 379.523 285.218 383.714 315.812 382.523 c 0
 330.751 381.941 332.303 377.896 330.668 367.895 c 2
 322.779 319.65 l 2
 320.753 307.259 313.608 307.898 300.723 308.049 c 0
 274.004 308.359 237.54 309.311 204.611 309.312 c 0
EndSplineSet
EndChar

StartChar: colon
Encoding: 58 58 36
Width: 241
VWidth: 0
Flags: W
HStem: -12.9043 137.357<77.1348 169.628> 282.561 137.356<71.6522 164.146>
VStem: 62.2803 119<1.4478 111.437 297.517 403.479>
LayerCount: 2
Fore
SplineSet
121.28 124.453 m 0
 158.474 125.939 181.28 101.652 181.28 60.6113 c 0
 181.28 10.5908 162.373 -12.9043 124.495 -12.9043 c 0
 95.2695 -12.9043 62.2803 4.0957 62.2803 59.0957 c 0
 62.2803 105.311 92.3037 123.296 121.28 124.453 c 0
120 282.561 m 0
 82.8076 281.074 60 305.361 60 346.402 c 0
 60 396.423 78.9072 419.917 116.786 419.917 c 0
 146.012 419.917 179 402.917 179 347.917 c 0
 179 301.703 148.978 283.718 120 282.561 c 0
EndSplineSet
EndChar

StartChar: semicolon
Encoding: 59 59 37
Width: 249
VWidth: 0
Flags: W
HStem: 288.139 137.356<82.5526 175.046>
VStem: 70.9004 119<301.155 411.143> 72.4121 106.253<9.27947 112.316>
LayerCount: 2
Fore
SplineSet
128.912 124.453 m 0xa0
 157.533 125.597 172.863 108.766 178.665 88.4961 c 0
 190.844 45.9482 185.341 -33.0752 167.007 -75.6768 c 0
 152.616 -109.119 132.334 -130.582 89.709 -161.157 c 0
 85.5771 -164.121 81.125 -164.22 76.0723 -161.157 c 0
 68.7285 -156.707 64.0293 -151.04 61.3184 -144.221 c 0
 59.2979 -139.14 59.4834 -133.418 62.6826 -130.784 c 0
 104.421 -96.416 119.384 -77.1016 120.33 -53.9082 c 0
 121.543 -24.2129 113.828 -6.07422 92.6875 8.43848 c 0
 79.7998 17.2852 72.4121 39.0684 72.4121 59.0957 c 0
 72.4121 105.311 99.9355 123.296 128.912 124.453 c 0xa0
130.9 288.139 m 0
 93.708 286.652 70.9004 310.939 70.9004 351.98 c 0
 70.9004 402.001 89.8076 425.495 127.687 425.495 c 0
 156.912 425.495 189.9 408.495 189.9 353.495 c 0xc0
 189.9 307.281 159.877 289.296 130.9 288.139 c 0
EndSplineSet
EndChar

StartChar: bracketleft
Encoding: 91 91 38
Width: 306
VWidth: 0
Flags: W
HStem: -153.016 50<151.806 246.09> 699.016 50<155.378 246.09>
VStem: 61.0918 185<-152.298 -102.234 698.156 748.861>
LayerCount: 2
Fore
SplineSet
116.092 754.016 m 0
 157.209 750.68 197.921 749.002 238.225 749.016 c 0
 243.654 749.018 246.092 746.92 246.092 740.528 c 2
 246.092 707.395 l 2
 246.092 702.204 244.13 699.328 238.907 699.016 c 2
 155.378 694.016 l 2
 146.012 693.455 140.868 690.307 141.092 681.783 c 0
 147.472 438.658 146.105 155.533 141.092 -87.5918 c 0
 140.956 -94.166 144.737 -97.6035 151.806 -98.0156 c 2
 237.521 -103.016 l 2
 243.416 -103.359 246.092 -105.659 246.092 -111.877 c 2
 246.092 -143.663 l 2
 246.092 -149.51 243.752 -153.085 238.234 -153.016 c 0
 198.02 -152.511 156.998 -155.009 116.092 -158.016 c 0
 67.2529 -161.606 56.0879 -167.003 61.0918 -103.016 c 0
 81.7334 160.914 83.3604 428.026 61.0918 699.016 c 0
 56.1777 758.813 74.3086 757.406 116.092 754.016 c 0
EndSplineSet
EndChar

StartChar: bracketright
Encoding: 93 93 39
Width: 306
VWidth: 0
Flags: W
HStem: -153.016 50<60.002 154.285> 699.016 50<60.0018 150.714>
VStem: 60 185<-152.298 -102.234 698.156 748.861>
LayerCount: 2
Fore
SplineSet
190 754.016 m 0
 231.783 757.406 249.914 758.813 245 699.016 c 0
 222.73 428.026 224.357 160.914 245 -103.016 c 0
 250.004 -167.003 238.839 -161.606 190 -158.016 c 0
 149.094 -155.009 108.072 -152.511 67.8564 -153.016 c 0
 62.3389 -153.085 60 -149.51 60 -143.663 c 2
 60 -111.877 l 2
 60 -105.659 62.6758 -103.359 68.5713 -103.016 c 2
 154.285 -98.0156 l 2
 161.354 -97.6035 165.135 -94.166 165 -87.5918 c 0
 159.985 155.533 158.619 438.658 165 681.783 c 0
 165.224 690.307 160.079 693.455 150.714 694.016 c 2
 67.1836 699.016 l 2
 61.9619 699.328 60 702.204 60 707.394 c 2
 60 740.528 l 2
 60 746.92 62.4375 749.018 67.8662 749.016 c 0
 108.17 749.002 148.883 750.68 190 754.016 c 0
EndSplineSet
EndChar

StartChar: periodcentered
Encoding: 183 183 40
Width: 239
VWidth: 0
Flags: W
HStem: 277.096 137.357<74.8546 167.348>
VStem: 60 119<291.448 401.437>
LayerCount: 2
Fore
SplineSet
119 414.453 m 0
 156.193 415.939 179 391.652 179 350.611 c 0
 179 300.591 160.093 277.096 122.215 277.096 c 0
 92.9893 277.096 60 294.096 60 349.096 c 0
 60 395.311 90.0234 413.296 119 414.453 c 0
EndSplineSet
EndChar

StartChar: afii57645
Encoding: 1470 1470 41
Width: 435
VWidth: 0
Flags: W
HStem: 483.263 107.042<71.0963 362.69>
VStem: 60.4365 314.736
LayerCount: 2
Fore
SplineSet
224.611 483.263 m 0
 165.126 483.263 115.985 478.4 71.3691 480 c 0
 62.1475 480.331 58.6924 484.689 60.4365 495.125 c 0
 62.6426 508.329 69.3545 558.363 71.5605 571.567 c 0
 73.8027 584.982 77.0449 593.694 91.0762 593.305 c 0
 116.086 592.609 149.034 590.305 209.722 590.305 c 0
 267.319 590.305 329.723 594.495 360.317 593.305 c 0
 375.257 592.723 376.634 588.704 375.173 578.676 c 2
 362.779 493.603 l 2
 360.97 481.178 353.608 481.85 340.723 482 c 0
 314.004 482.311 257.54 483.263 224.611 483.263 c 0
EndSplineSet
EndChar

StartChar: afii57658
Encoding: 1475 1475 42
Width: 241
VWidth: 0
Flags: W
HStem: -12.9043 137.357<77.1348 169.628> 459.703 137.357<71.6522 164.146>
VStem: 62.2803 119<1.4478 111.437 474.66 580.622>
LayerCount: 2
Fore
SplineSet
121.28 124.453 m 0
 158.474 125.939 181.28 101.652 181.28 60.6113 c 0
 181.28 10.5908 162.373 -12.9043 124.495 -12.9043 c 0
 95.2695 -12.9043 62.2803 4.0957 62.2803 59.0957 c 0
 62.2803 105.311 92.3037 123.296 121.28 124.453 c 0
120 459.703 m 0
 82.8076 458.218 60 482.505 60 523.545 c 0
 60 573.565 78.9072 597.061 116.786 597.061 c 0
 146.012 597.061 179 580.061 179 525.061 c 0
 179 478.846 148.978 460.86 120 459.703 c 0
EndSplineSet
EndChar

StartChar: uni2010
Encoding: 8208 8208 43
Width: 391
VWidth: 0
Flags: W
HStem: 309.312 70.2119<66.7864 322.681>
VStem: 60.4365 270.231
LayerCount: 2
Fore
SplineSet
204.611 309.312 m 0
 145.126 309.312 115.985 304.448 71.3691 306.049 c 0
 62.1475 306.379 58.6924 310.738 60.4365 321.174 c 0
 62.6426 334.377 64.8496 347.582 67.0557 360.786 c 0
 69.2979 374.201 72.54 382.913 86.5713 382.523 c 0
 111.581 381.828 124.529 379.523 185.217 379.523 c 0
 242.814 379.523 285.218 383.714 315.812 382.523 c 0
 330.751 381.941 332.303 377.896 330.668 367.895 c 2
 322.779 319.65 l 2
 320.753 307.259 313.608 307.898 300.723 308.049 c 0
 274.004 308.359 237.54 309.311 204.611 309.312 c 0
EndSplineSet
EndChar

StartChar: endash
Encoding: 8211 8211 44
Width: 580
VWidth: 0
Flags: W
HStem: 309.312 70.2119<66.7857 511.967>
LayerCount: 2
Fore
SplineSet
321.754 309.312 m 0
 260.248 309.312 161.947 308.489 71.3691 306.049 c 0
 62.1455 305.8 58.6924 310.738 60.4365 321.174 c 0
 62.6426 334.377 64.8496 347.582 67.0557 360.786 c 0
 69.2979 374.201 72.5488 383.152 86.5713 382.523 c 0
 147.056 379.808 228.54 379.523 302.359 379.523 c 0
 359.957 379.523 440.084 384.105 505.098 382.523 c 0
 520.044 382.159 521.589 377.896 519.953 367.895 c 2
 512.065 319.65 l 2
 510.039 307.259 502.888 307.614 490.009 308.049 c 0
 420.863 310.38 384.987 309.311 321.754 309.312 c 0
EndSplineSet
EndChar

StartChar: emdash
Encoding: 8212 8212 45
Width: 745
VWidth: 0
Flags: W
HStem: 309.312 70.2119<66.7857 676.508>
LayerCount: 2
Fore
SplineSet
410.965 309.312 m 0
 349.458 309.312 161.947 308.489 71.3691 306.049 c 0
 62.1455 305.8 58.6924 310.738 60.4365 321.174 c 0
 62.6426 334.377 64.8496 347.582 67.0557 360.786 c 0
 69.2979 374.201 72.5488 383.152 86.5713 382.523 c 0
 147.056 379.808 317.75 379.523 391.57 379.523 c 0
 449.168 379.523 604.626 384.105 669.64 382.523 c 0
 684.586 382.159 686.13 377.896 684.495 367.895 c 2
 676.606 319.65 l 2
 674.581 307.259 667.43 307.614 654.55 308.049 c 0
 585.404 310.38 474.197 309.311 410.965 309.312 c 0
EndSplineSet
EndChar

StartChar: quoteleft
Encoding: 8216 8216 46
Width: 239
VWidth: 0
Flags: W
LayerCount: 2
Fore
SplineSet
173.138 550.164 m 0
 183.244 523.14 172.665 481.827 139.302 469.35 c 0
 115.592 460.483 83.375 466.506 67.1465 509.899 c 0
 49.0283 560.435 68.2646 619.058 92.4531 655.108 c 0
 104.126 672.092 125.249 695.125 143.729 708.199 c 0
 149.852 712.53 155.545 712.516 162.319 708.761 c 0
 168.479 705.348 175.407 697.755 178.055 691.81 c 0
 180.965 685.275 180.36 680.416 175.77 676.689 c 0
 155.657 660.364 143.27 643.264 141.818 626.001 c 0
 140.366 608.722 144.312 593.117 152.361 581.536 c 0
 157.212 574.559 170.086 558.324 173.138 550.164 c 0
EndSplineSet
EndChar

StartChar: quoteright
Encoding: 8217 8217 47
Width: 239
VWidth: 0
Flags: W
LayerCount: 2
Fore
SplineSet
66.6924 627.194 m 0
 56.5859 654.219 67.165 695.531 100.528 708.009 c 0
 124.238 716.875 156.455 710.853 172.684 667.459 c 0
 190.802 616.923 171.565 558.3 147.377 522.25 c 0
 135.704 505.266 114.581 482.232 96.1006 469.159 c 0
 89.9785 464.828 84.2852 464.843 77.5107 468.598 c 0
 71.3516 472.011 64.4229 479.603 61.7754 485.549 c 0
 58.8652 492.083 59.4697 496.942 64.0605 500.668 c 0
 84.1729 516.994 96.5605 534.095 98.0117 551.357 c 0
 99.4639 568.637 95.5186 584.24 87.4688 595.821 c 0
 82.6182 602.8 69.7441 619.033 66.6924 627.194 c 0
EndSplineSet
EndChar

StartChar: quotedblleft
Encoding: 8220 8220 48
Width: 394
VWidth: 0
Flags: W
LayerCount: 2
Fore
SplineSet
173.138 550.164 m 0
 183.244 523.14 172.665 481.827 139.302 469.35 c 0
 115.592 460.483 83.375 466.506 67.1465 509.899 c 0
 49.0283 560.435 68.2646 619.058 92.4531 655.108 c 0
 104.126 672.092 125.249 695.125 143.729 708.199 c 0
 149.852 712.53 155.545 712.516 162.319 708.761 c 0
 168.479 705.348 175.407 697.755 178.055 691.81 c 0
 180.965 685.275 180.36 680.416 175.77 676.689 c 0
 155.657 660.364 143.27 643.264 141.818 626.001 c 0
 140.366 608.722 144.312 593.117 152.361 581.536 c 0
 157.212 574.559 170.086 558.324 173.138 550.164 c 0
331.107 550.164 m 0
 341.214 523.14 330.635 481.827 297.271 469.35 c 0
 273.562 460.483 241.345 466.506 225.116 509.899 c 0
 206.997 560.435 226.234 619.058 250.423 655.108 c 0
 262.096 672.092 280.188 691.364 298.669 704.438 c 0
 304.791 708.77 310.484 708.754 317.259 705 c 0
 323.418 701.587 330.347 693.994 332.994 688.049 c 0
 335.903 681.514 335.3 676.655 330.709 672.929 c 0
 310.597 656.604 301.239 643.264 299.788 626.001 c 0
 298.336 608.722 302.281 593.117 310.331 581.536 c 0
 315.182 574.559 328.056 558.325 331.107 550.164 c 0
EndSplineSet
EndChar

StartChar: quotedblright
Encoding: 8221 8221 49
Width: 394
VWidth: 0
Flags: W
LayerCount: 2
Fore
SplineSet
221.643 627.194 m 0
 211.536 654.219 222.115 695.531 255.479 708.009 c 0
 279.188 716.875 311.406 710.853 327.634 667.459 c 0
 345.753 616.923 326.516 558.3 302.328 522.25 c 0
 290.654 505.266 269.531 482.232 251.051 469.159 c 0
 244.929 464.828 239.235 464.843 232.461 468.598 c 0
 226.302 472.011 219.373 479.603 216.726 485.549 c 0
 213.816 492.083 214.42 496.942 219.011 500.668 c 0
 239.123 516.994 251.512 534.095 252.962 551.357 c 0
 254.414 568.637 250.47 584.24 242.42 595.821 c 0
 237.569 602.8 224.694 619.033 221.643 627.194 c 0
63.6729 627.194 m 0
 53.5664 654.219 64.1455 695.531 97.5088 708.009 c 0
 121.219 716.875 153.437 710.853 169.664 667.459 c 0
 187.783 616.923 168.546 558.3 144.358 522.25 c 0
 132.685 505.266 114.592 485.993 96.1123 472.92 c 0
 89.9893 468.589 84.2969 468.604 77.5225 472.358 c 0
 71.3633 475.771 64.4336 483.363 61.7861 489.31 c 0
 58.877 495.844 59.4814 500.703 64.0713 504.429 c 0
 84.1836 520.755 93.542 534.095 94.9922 551.357 c 0
 96.4443 568.637 92.5 584.24 84.4502 595.821 c 0
 79.5996 602.8 66.7246 619.033 63.6729 627.194 c 0
EndSplineSet
EndChar

StartChar: bullet
Encoding: 8226 8226 50
Width: 283
VWidth: 0
Flags: W
HStem: 242.401 171.88<85.6312 202.923>
VStem: 60 163.688<267.862 390.242>
LayerCount: 2
Fore
SplineSet
141.156 414.281 m 0
 192.316 416.141 223.688 385.749 223.688 334.394 c 0
 223.688 271.802 197.681 242.401 145.577 242.401 c 0
 105.377 242.401 60 263.675 60 332.498 c 0
 60 390.327 101.298 412.833 141.156 414.281 c 0
EndSplineSet
EndChar

StartChar: ellipsis
Encoding: 8230 8230 51
Width: 765
VWidth: 0
Flags: W
HStem: -12.9043 137.357<74.8546 167.348 336.074 430.414 597.944 690.437>
VStem: 60 119<1.4478 111.437> 323.146 119<-0.131893 111.854> 586.291 119<1.4478 111.437>
CounterMasks: 1 70
LayerCount: 2
Fore
SplineSet
119 124.453 m 0
 156.193 125.939 179 101.652 179 60.6113 c 0
 179 10.5908 160.093 -12.9043 122.215 -12.9043 c 0
 92.9893 -12.9043 60 4.0957 60 59.0957 c 0
 60 105.311 90.0234 123.296 119 124.453 c 0
382.146 124.453 m 0
 421.38 124.453 442.146 104.683 442.146 60.6113 c 0
 442.146 10.5908 423.238 -12.9043 385.36 -12.9043 c 0
 347.043 -12.9043 323.146 7.88379 323.146 59.0957 c 0
 323.146 105.311 353.146 124.453 382.146 124.453 c 0
646.291 124.453 m 0
 675.269 123.296 705.291 105.311 705.291 59.0957 c 0
 705.291 4.0957 672.303 -12.9043 643.077 -12.9043 c 0
 605.199 -12.9043 586.291 10.5908 586.291 60.6113 c 0
 586.291 101.652 609.099 125.939 646.291 124.453 c 0
EndSplineSet
EndChar
